<svg width="168" height="34" viewBox="0 0 168 34" fill="none" xmlns="http://www.w3.org/2000/svg">
<path d="M141.512 20.7752L137.951 10.7051C137.739 10.1759 137.513 9.55593 137.271 8.84528C137.044 8.13463 136.825 7.36349 136.613 6.53188C136.401 7.37861 136.174 8.16487 135.932 8.89064C135.706 9.6013 135.486 10.2212 135.275 10.7504L131.737 20.7752H141.512ZM152.943 33.2721H147.658C147.069 33.2721 146.585 33.136 146.207 32.8639C145.844 32.5766 145.572 32.2137 145.39 31.7752L143.168 25.4927H130.058L127.836 31.7752C127.684 32.1532 127.42 32.501 127.042 32.8185C126.664 33.1209 126.187 33.2721 125.613 33.2721H120.283L133.143 0.362793H140.106L152.943 33.2721Z" fill="white"/>
<path d="M117.281 0.362793V33.2721H111.271V13.0638C111.271 12.6405 111.279 12.1869 111.294 11.703C111.324 11.2192 111.369 10.7278 111.43 10.2288L102.017 28.0783C101.503 29.0611 100.709 29.5525 99.6359 29.5525H98.6833C98.1541 29.5525 97.6854 29.4316 97.2771 29.1896C96.8689 28.9326 96.5438 28.5621 96.3019 28.0783L86.8441 10.1607C86.8895 10.69 86.9273 11.204 86.9575 11.703C86.9877 12.1869 87.0029 12.6405 87.0029 13.0638V33.2721H80.9926V0.362793H86.1637C86.451 0.362793 86.708 0.370353 86.9348 0.385474C87.1616 0.400594 87.3582 0.445954 87.5245 0.521555C87.706 0.582038 87.8647 0.68788 88.0008 0.839083C88.152 0.975165 88.2957 1.17173 88.4317 1.42878L97.64 18.9834C97.9273 19.5126 98.1919 20.057 98.4338 20.6164C98.6909 21.1759 98.9328 21.7505 99.1596 22.3401C99.3864 21.7353 99.6208 21.1456 99.8627 20.5711C100.12 19.9965 100.392 19.4446 100.679 18.9154L109.819 1.42878C109.955 1.17173 110.099 0.975165 110.25 0.839083C110.402 0.68788 110.56 0.582038 110.727 0.521555C110.908 0.445954 111.105 0.400594 111.316 0.385474C111.543 0.370353 111.808 0.362793 112.11 0.362793H117.281Z" fill="white"/>
<path d="M61.7951 5.6927V14.1525H72.7724V19.301H61.7951V27.9422H75.9023V33.2721H54.9456V0.362793H75.9023V5.6927H61.7951Z" fill="white"/>
<path d="M50.8622 5.85146H41.2457V33.2721H34.4189V5.85146H24.8024V0.362793H50.8622V5.85146Z" fill="white"/>
<path d="M20.4124 6.66805C20.2007 7.01582 19.9815 7.27286 19.7547 7.43919C19.543 7.59039 19.2633 7.66599 18.9155 7.66599C18.5828 7.66599 18.22 7.55259 17.8268 7.32579C17.4488 7.08386 17.0028 6.82681 16.4887 6.55465C15.9746 6.28248 15.3849 6.033 14.7196 5.80619C14.0543 5.56427 13.2756 5.44331 12.3835 5.44331C10.811 5.44331 9.63163 5.79863 8.84538 6.50929C8.05912 7.20482 7.66599 8.1196 7.66599 9.25362C7.66599 9.9794 7.87768 10.5842 8.30104 11.0681C8.73953 11.5368 9.30654 11.945 10.0021 12.2928C10.7127 12.6406 11.5141 12.9505 12.4062 13.2227C13.2983 13.4949 14.2131 13.7973 15.1505 14.1299C16.088 14.4474 17.0028 14.8255 17.8949 15.2639C18.787 15.7024 19.5808 16.2543 20.2763 16.9196C20.987 17.5849 21.554 18.4014 21.9774 19.3691C22.4158 20.3217 22.6351 21.4859 22.6351 22.8619C22.6351 24.3588 22.3705 25.765 21.8413 27.0805C21.3272 28.3808 20.5787 29.5224 19.5959 30.5052C18.6131 31.4729 17.3959 32.2365 15.9444 32.7959C14.5079 33.3554 12.8749 33.6351 11.0454 33.6351C10.0021 33.6351 8.95878 33.5293 7.91548 33.3176C6.8873 33.1059 5.88936 32.8111 4.92166 32.433C3.96908 32.055 3.06942 31.6014 2.22268 31.0722C1.37595 30.543 0.635053 29.9533 0 29.3031L1.99588 26.0825C2.1622 25.8406 2.38145 25.644 2.65361 25.4928C2.92578 25.3265 3.21306 25.2433 3.51547 25.2433C3.92372 25.2433 4.35465 25.3945 4.80825 25.697C5.26186 25.9994 5.78351 26.332 6.37321 26.6949C6.9629 27.0578 7.64331 27.3904 8.41445 27.6928C9.2007 27.9952 10.1382 28.1464 11.2268 28.1464C12.8145 28.1464 14.0392 27.7836 14.9011 27.0578C15.778 26.332 16.2165 25.2509 16.2165 23.8145C16.2165 22.9829 15.9973 22.31 15.5588 21.7959C15.1354 21.2818 14.576 20.8509 13.8804 20.5031C13.1849 20.1554 12.3911 19.8605 11.499 19.6186C10.6069 19.3615 9.69211 19.0818 8.75465 18.7794C7.81719 18.477 6.90242 18.1141 6.01032 17.6907C5.11822 17.2674 4.32441 16.7079 3.62887 16.0124C2.93334 15.3169 2.36633 14.455 1.92784 13.4268C1.50447 12.3986 1.29279 11.121 1.29279 9.59383C1.29279 8.36909 1.53471 7.18214 2.01856 6.033C2.50241 4.88386 3.21306 3.86324 4.15052 2.97114C5.08798 2.07904 6.23712 1.36083 7.59795 0.816496C8.9739 0.272165 10.5464 0 12.3155 0C14.2962 0 16.1258 0.309966 17.8042 0.929899C19.4976 1.53471 20.9265 2.38145 22.0908 3.47011L20.4124 6.66805Z" fill="white"/>
<circle cx="162.356" cy="27.6068" r="5.46834" fill="#6F7BFF"/>
</svg>
